<?xml version="1.0" encoding="UTF-8"?>
<!DOCTYPE svg PUBLIC "-//W3C//DTD SVG 1.1//EN" "http://www.w3.org/Graphics/SVG/1.1/DTD/svg11.dtd">
<!-- Creator: CorelDRAW X7 -->
<svg xmlns="http://www.w3.org/2000/svg" xml:space="preserve" width="107.227mm" height="24.1062mm" version="1.1" style="shape-rendering:geometricPrecision; text-rendering:geometricPrecision; image-rendering:optimizeQuality; fill-rule:evenodd; clip-rule:evenodd"
viewBox="0 0 5876 1321"
 xmlns:xlink="http://www.w3.org/1999/xlink">
 <defs>
  <style type="text/css">
   <![CDATA[
    .str0 {stroke:#373435;stroke-width:9.66666}
    .fil2 {fill:#373435}
    .fil0 {fill:black}
    .fil1 {fill:black}
   ]]>
  </style>
 </defs>
 <g id="Layer_x0020_1">
  <metadata id="CorelCorpID_0Corel-Layer"/>
  <g id="_1942014071568">
   <path class="fil0" d="M2931 1042l0 200c0,15 11,31 25,31l219 0c15,0 24,-15 24,-31l0 -200c0,-21 -10,-35 -30,-35l-207 0c-21,0 -31,14 -31,35z"/>
   <path class="fil0" d="M2931 727l0 197c0,21 10,34 31,34l207 0c20,0 30,-13 30,-34l0 -201c0,-15 -9,-30 -24,-30l-219 0c-16,0 -25,17 -25,34z"/>
   <path class="fil0" d="M3565 84l0 218c0,16 18,25 35,25l196 0c21,0 35,-10 35,-31l0 -206c0,-18 -13,-31 -31,-31l-204 0c-15,0 -31,10 -31,25z"/>
   <path class="fil0" d="M2931 411l0 196c0,20 10,35 29,35l211 0c17,0 28,-14 28,-31l0 -205c0,-17 -11,-30 -28,-30l-213 0c-8,0 -16,6 -20,10 -4,6 -7,15 -7,25z"/>
   <path class="fil0" d="M3248 86l0 210c0,21 14,31 35,31l196 0c20,0 35,-9 35,-29l0 -214c0,-14 -16,-25 -31,-25l-204 0c-16,0 -31,12 -31,27z"/>
   <path class="fil0" d="M3248 404l0 209c0,16 13,29 25,29l216 0c13,0 25,-13 25,-25l0 -217c0,-12 -12,-24 -25,-24l-212 0c-17,0 -29,11 -29,28z"/>
   <path class="fil0" d="M3565 719l0 215c0,14 14,24 29,24l206 0c16,0 31,-12 31,-26l0 -211c0,-15 -10,-28 -25,-28l-218 0c-13,0 -23,13 -23,26z"/>
   <path class="fil0" d="M3248 721l0 211c0,14 15,26 31,26l206 0c17,0 29,-12 29,-24l0 -215c0,-13 -10,-26 -23,-26l-218 0c-15,0 -25,13 -25,28z"/>
   <path class="fil0" d="M3248 1034l0 210c0,16 10,29 25,29l218 0c13,0 23,-13 23,-27l0 -214c0,-12 -12,-25 -29,-25l-206 0c-16,0 -31,12 -31,27z"/>
   <path class="fil0" d="M2923 188c0,33 7,61 25,87 10,13 14,17 25,27 87,75 230,27 240,-106 3,-35 -17,-76 -39,-102 -3,-3 -5,-5 -8,-8 -5,-3 -6,-4 -10,-8 -83,-70 -233,-11 -233,110z"/>
  </g>
  <g id="_1942014014416">
   <g>
    <path class="fil0" d="M5195 413l33 106 -66 0c6,-24 20,-64 28,-93l5 -13zm-249 69l-31 0 0 -67c24,0 67,-4 67,30 0,25 -15,37 -36,37zm-88 149l51 0c4,0 6,-1 6,-6l0 -96 28 0c3,8 11,19 15,26l33 53c5,7 12,23 20,23l112 0c8,0 9,-14 14,-29 3,-10 9,-24 9,-34l96 0c3,12 7,22 10,33 10,39 0,30 63,30 12,0 3,-11 -3,-29 -21,-65 -49,-136 -71,-201l-11 -35 -70 0 -92 261c-5,-3 -50,-72 -57,-83 -5,-7 -17,-22 -18,-29 21,-6 47,-35 47,-64 0,-78 -57,-85 -129,-85l-53 0 0 265z"/>
    <path class="fil0" d="M4467 582l-30 0 0 -167 38 0c40,0 64,33 64,73l0 19c0,44 -28,75 -72,75zm-88 -210l0 253c0,5 2,6 7,6 75,0 159,8 197,-64 26,-48 24,-135 -31,-175 -43,-32 -109,-26 -166,-26 -5,0 -7,1 -7,6z"/>
    <path class="fil0" d="M4651 372l0 253c0,5 2,6 6,6l141 0c11,0 6,-20 6,-49l-96 0 0 -65 84 0c10,0 6,-15 6,-41 0,-5 -1,-6 -6,-6l-84 0 0 -55 90 0c10,0 6,-16 6,-43 0,-5 -1,-6 -6,-6l-141 0c-4,0 -6,1 -6,6z"/>
    <path class="fil0" d="M4173 372l0 253c0,5 1,6 6,6l141 0c11,0 6,-20 6,-49l-96 0 0 -65 90 0 0 -47 -90 0 0 -55 90 0c10,0 6,-16 6,-43 0,-5 -1,-6 -6,-6l-141 0c-5,0 -6,1 -6,6z"/>
    <path class="fil0" d="M3971 372l0 253c0,11 21,6 51,6 4,0 6,-1 6,-6l0 -98 88 0 0 -47 -88 0 0 -65 94 0 0 -49 -145 0c-5,0 -6,1 -6,6z"/>
    <path class="fil0" d="M5354 372l0 253c0,5 2,6 6,6l158 0 0 -49 -106 0 0 -216 -52 0c-4,0 -6,1 -6,6z"/>
   </g>
   <g>
    <path class="fil0" d="M4095 317c30,0 51,4 51,-7 0,-24 2,-130 -1,-149l-3 -43c3,3 1,1 4,5 1,2 2,4 4,6 3,6 4,8 7,13 6,10 10,17 15,26l81 141c3,5 3,8 12,8l63 0 0 -266c-29,0 -51,-5 -51,6l0 133c0,21 2,34 2,55l-29 -48c-5,-10 -9,-16 -14,-25l-57 -98c-18,-30 -1,-23 -84,-23l0 266z"/>
    <path class="fil0" d="M5683 190c0,-27 2,-50 16,-71 24,-35 115,-41 115,55 0,35 -1,75 -37,92 -26,11 -63,5 -78,-18 -9,-13 -16,-37 -16,-58zm-59 -23c0,44 0,83 31,116 30,33 63,36 104,36 144,0 148,-218 51,-260 -45,-19 -115,-14 -148,18 -24,24 -38,52 -38,90z"/>
    <path class="fil0" d="M5142 57l0 170c0,53 42,92 98,92l18 0c54,0 100,-37 100,-90l0 -172c0,-11 -21,-6 -51,-6 -10,0 -6,19 -6,28 0,34 4,149 -5,169 -14,28 -58,26 -75,17 -26,-13 -22,-51 -22,-81l0 -105c0,-34 10,-28 -51,-28 -5,0 -6,1 -6,6z"/>
    <path class="fil0" d="M4379 122c0,56 50,73 87,92 50,25 35,76 -51,51 -12,-4 -30,-13 -38,-14l0 53c19,5 33,15 64,15 31,0 54,1 81,-19 25,-19 27,-36 27,-65 0,-73 -112,-67 -112,-117 0,-38 72,-16 94,-6l18 -45c-40,-19 -109,-30 -146,2 -12,11 -24,31 -24,53z"/>
    <path class="fil0" d="M5397 100l70 0 0 210c0,11 23,7 53,7 5,0 6,-2 6,-7l0 -210 65 0c10,0 6,-16 6,-43 0,-5 -1,-6 -6,-6l-194 0 0 49z"/>
    <path class="fil0" d="M4569 57l0 43 72 0 0 210c0,11 22,7 51,7 5,0 6,-2 6,-7l0 -210 72 0c0,-29 4,-49 -6,-49l-188 0c-5,0 -7,1 -7,6z"/>
    <path class="fil0" d="M4905 100l71 0 0 217 51 0c5,0 6,-2 6,-7l0 -210 66 0c10,0 6,-16 6,-43 0,-5 -1,-6 -6,-6l-194 0 0 49z"/>
    <path class="fil0" d="M3971 57l0 253c0,11 23,7 53,7 4,0 6,-2 6,-7l0 -253c0,-11 -23,-6 -53,-6 -5,0 -6,1 -6,6z"/>
    <path class="fil0" d="M4809 317l51 0c4,0 6,-2 6,-7l0 -253c0,-5 -2,-6 -6,-6l-51 0 0 266z"/>
   </g>
   <g>
    <path class="fil0" d="M3971 838c0,43 4,81 48,103 26,12 67,12 95,6 15,-4 24,-4 24,-11l0 -88c0,-5 -1,-6 -6,-6l-59 0c-10,0 -10,22 0,22l39 0 0 62 -51 2c-38,0 -64,-32 -64,-70l0 -22c0,-36 30,-68 66,-68 48,0 28,2 63,10 2,-8 6,-14 8,-22 -34,-8 -67,-22 -111,-1 -31,15 -52,46 -52,83z"/>
    <path class="fil0" d="M4467 930c-16,0 -34,-2 -34,-23 0,-32 42,-32 71,-32 0,20 1,55 -37,55zm-43 -123c2,8 5,12 6,18 13,-1 52,-23 70,1 6,8 4,16 4,30 -39,9 -96,-7 -96,55 0,46 62,44 81,32 6,-4 10,-11 17,-15 1,6 4,14 4,20l19 0 0 -108c0,-47 -50,-51 -82,-41 -7,2 -16,7 -23,8z"/>
    <path class="fil0" d="M4249 930l-13 0c-48,0 -45,-81 -28,-100 4,-5 0,-2 5,-5 3,-3 4,-4 8,-5 30,-14 64,0 64,55 0,12 -3,29 -8,36 -4,7 -17,19 -28,19zm-78 -58c0,39 25,78 61,78 22,0 43,0 61,-21 25,-30 35,-134 -57,-134 -41,0 -65,36 -65,77z"/>
    <path class="fil0" d="M4647 907c0,25 -22,23 -43,23 -17,0 -26,-8 -39,-11l0 23c26,12 107,21 107,-37 0,-48 -84,-40 -84,-71 0,-34 69,-11 73,-11 3,-10 6,-8 7,-20 -11,-1 -71,-24 -97,10 -9,12 -10,32 1,45 19,23 75,24 75,49z"/>
    <polygon class="fil0" points="4349,948 4373,948 4373,797 4349,797 "/>
    <path class="fil0" d="M4455 781c20,0 19,-4 35,-20 5,-5 6,-8 11,-13 4,-5 7,-8 9,-14l-30 0c-4,16 -25,31 -25,47z"/>
    <path class="fil0" d="M4347 754c0,9 1,20 14,20 18,0 19,-32 0,-32 -6,0 -14,6 -14,12z"/>
   </g>
  </g>
  <path class="fil0" d="M1613 873c10,-3 16,-11 24,-17 9,-6 16,-10 26,-15 18,-8 41,-14 65,-15 61,-2 94,35 116,46l-116 117 -115 -116zm82 -873l80 0c65,4 129,17 188,41 10,4 18,7 29,12 11,4 16,8 27,12 11,4 16,9 27,14 56,28 115,77 158,120 48,48 104,128 130,191 7,19 15,36 22,57 7,21 12,40 18,63 10,40 17,91 17,140 0,260 -128,463 -322,579 -50,30 -112,56 -168,71 -43,12 -85,18 -128,21l-81 0c-75,-5 -148,-22 -219,-50 -184,-72 -328,-240 -382,-431 -16,-56 -20,-94 -21,-135l0 -94c0,-41 12,-98 22,-132 34,-116 90,-208 173,-291l62 -54c43,-32 74,-51 121,-73 76,-35 161,-56 247,-61zm-254 700c19,-28 80,-66 111,-81 106,-52 248,-52 354,0 20,10 42,22 60,36 16,12 40,29 51,44l-112 113c-4,-3 -11,-8 -17,-13 -6,-5 -10,-9 -17,-14 -54,-38 -128,-53 -196,-38 -73,16 -86,41 -123,66l-111 -113zm-64 -63l-112 -113c14,-19 67,-59 84,-72 16,-11 30,-20 47,-30 30,-18 74,-38 107,-50 125,-45 260,-52 389,-20 33,8 112,37 142,54 9,6 16,9 24,14 27,16 114,74 134,104l-112 113c-32,-22 -55,-59 -138,-95 -93,-41 -131,-47 -238,-47 -67,0 -143,24 -188,47 -55,27 -62,33 -107,68 -13,10 -19,18 -32,27z"/>
  <rect class="fil1 str0" x="2644" y="131" width="13.3053" height="1011.45"/>
  <path class="fil2" d="M244 452l-48 -200 -48 200 -61 0 -87 -308 69 0 50 199 43 -199 68 0 47 199 50 -199 66 0 -87 308 -62 0zm165 0l0 -228 61 0 0 228 -61 0zm0 -256l0 -56 61 0 0 56 -61 0zm82 137l0 -47 115 0 0 47 -115 0zm199 -11l0 130 -65 0 0 -308 220 0 0 54 -155 0 0 70 135 0 0 54 -135 0zm173 130l0 -228 60 0 0 228 -60 0zm0 -256l0 -56 60 0 0 56 -60 0zm-312 813l0 -308 65 0 0 308 -65 0zm231 -45c12,0 23,-2 33,-6 10,-4 19,-11 26,-19 8,-9 14,-19 18,-33 5,-13 7,-29 7,-47 0,-37 -7,-64 -22,-83 -14,-19 -35,-28 -62,-28 -27,0 -48,9 -62,28 -15,19 -22,46 -22,83 0,36 7,63 22,80 15,17 35,25 62,25zm0 55c-47,0 -84,-13 -109,-41 -26,-28 -39,-68 -39,-120 0,-26 4,-50 10,-71 6,-20 16,-38 29,-52 12,-15 28,-26 46,-33 18,-8 39,-11 63,-11 24,0 45,3 63,11 19,7 34,19 46,33 13,15 22,32 29,53 6,21 9,45 9,71 0,53 -12,93 -37,120 -26,27 -62,40 -110,40z"/>
 </g>
</svg>
